<svg class="hosting" viewBox="0 0 64.55 48.94" xmlns="http://www.w3.org/2000/svg">
<defs>
<style>.hosting--a{fill:#f0f1f1;}.hosting--b{fill:#e4e2e9;}.hosting--c{fill:#818284;}.hosting--d{fill:#9dbf3b;}.hosting--e{fill:#3e3e3f;}.hosting--f{fill:#fa5655;}.hosting--g{fill:#f99134;}.hosting--lock{animation:lock 4s infinite;}.hosting--light-on{animation:light-on 4s infinite;}.hosting--light-off{animation:light-off 4s infinite;}@keyframes lock{0%{transform: translateY(-0px);}20%{transform: translateY(-0px);}50%{transform: translateY(-3px);}80%{transform: translateY(-3px);}100%{transform: translateY(-0px);}}@keyframes light-on{0%{fill: #7a9234;}20%{fill: #7a9234;}50%{fill: #bdff00;}80%{fill: #bdff00;}100%{fill: #7a9234;}}@keyframes light-off{0%{fill: #ff0200;}20%{fill: #ff0200;}50%{fill: #b93f3e;}80%{fill: #b93f3e;}100%{fill: #ff0200;}}</style>
</defs>
<title>hosting2</title>
<path class="hosting--a" transform="translate(0)" d="M64.55,20.64a11.2,11.2,0,0,0-1.91-6.06,10.93,10.93,0,0,0-4.83-3.88c-.38-1.16-2.27-6.56-7.6-9.18A15.65,15.65,0,0,0,43.49,0a15.37,15.37,0,0,0-4.62.71A16.23,16.23,0,0,0,30.2,8.12a5.94,5.94,0,0,0-2.39-.49,6.11,6.11,0,0,0-6.11,5.88,9.18,9.18,0,0,0,3.05,17.84H55.34C60.81,29.46,64.49,25.1,64.55,20.64Z"/>
<path class="hosting--b" transform="translate(0)" d="M43.49,0a15.42,15.42,0,0,0-4.62.71c-5.11,1.64-7.85,6-8.67,7.41a6.1,6.1,0,0,0-8.5,5.39A9.18,9.18,0,0,0,24,31.31L52.37,2.93A13.92,13.92,0,0,0,50.1,1.47,14.14,14.14,0,0,0,43.49,0Z"/>
<path class="hosting--c hosting--lock" transform="translate(0)" d="M59.11,34.31H54.9V24.4a4.91,4.91,0,1,0-9.82,0h0v4.91H40.87V24.4a9.12,9.12,0,1,1,18.24,0Z"/>
<rect class="hosting--d" x="37.37" y="29.31" width="25.24" height="19.63" rx="2.8" ry="2.8"/>
<path class="hosting--e" transform="translate(0)" d="M51.91,35.87A2.37,2.37,0,1,0,48.45,38l-1.27,6.77h4.73L50.64,38A2.37,2.37,0,0,0,51.91,35.87Z"/>
<rect class="hosting--e" y="21.78" width="16.97" height="27.16" rx="1.7" ry="1.7"/>
<rect class="hosting--e" x="18.67" y="21.78" width="16.97" height="27.16" rx="1.7" ry="1.7"/>
<circle class="hosting--f hosting--light-off" cx="13.15" cy="25.6" r="1.27"/>
<circle class="hosting--g" cx="8.91" cy="25.6" r="1.27"/>
<circle class="hosting--d hosting--light-on" cx="4.67" cy="25.6" r="1.27"/>
<circle class="hosting--f hosting--light-off" cx="31.82" cy="25.6" r="1.27"/>
<circle class="hosting--g" cx="27.58" cy="25.6" r="1.27"/>
<circle class="hosting--d hosting--light-on" cx="23.34" cy="25.6" r="1.27"/>
<rect class="hosting--c" y="43" width="16.97" height="1.7"/>
<rect class="hosting--c" y="38.76" width="16.97" height="1.7"/>
<rect class="hosting--c" y="34.51" width="16.97" height="1.7"/>
<rect class="hosting--c" y="30.27" width="16.97" height="1.7"/>
<rect class="hosting--c" x="18.67" y="43" width="16.97" height="1.7"/>
<rect class="hosting--c" x="18.67" y="38.76" width="16.97" height="1.7"/>
<rect class="hosting--c" x="18.67" y="34.51" width="16.97" height="1.7"/>
<rect class="vc" x="18.67" y="30.27" width="16.97" height="1.7"/>
</svg>
