<svg xmlns="http://www.w3.org/2000/svg" viewBox="0 0 64 56.91">
  <defs>
    <style>
      .a {
        fill: #3e3e3f;
      }

      .b {
        fill: #e2e4e5;
      }

      .c {
        fill: #f0f1f1;
      }

      .d {
        fill: #fff;
      }

      .e {
        fill: #cfd3d4;
      }

      .f {
        fill: #5b5c5f;
      }

      .g {
        fill: #9dd83b;
      }
    </style>
  </defs>
  <title>stworzeniewitryny</title>
  <path class="a" d="M64,43.66a2.9,2.9,0,0,1-2.91,2.9H2.91A2.9,2.9,0,0,1,0,43.66V3A2.91,2.91,0,0,1,2.91.09H61.09A2.91,2.91,0,0,1,64,3Z"/>
  <rect class="b" x="23.27" y="46.56" width="17.45" height="7.44"/>
  <path class="c" d="M46.55,55.46a1.46,1.46,0,0,1-1.46,1.45H18.91a1.46,1.46,0,1,1,0-2.91H45.09A1.46,1.46,0,0,1,46.55,55.46Z"/>
  <path class="d" d="M64,43.66V34.94H0v8.72a2.9,2.9,0,0,0,2.91,2.9H61.09A2.9,2.9,0,0,0,64,43.66Z"/>
  <path class="e" d="M31.82,41.93a2.45,2.45,0,1,1,2.46-2.45A2.45,2.45,0,0,1,31.82,41.93Zm0-3.64A1.2,1.2,0,1,0,33,39.48,1.19,1.19,0,0,0,31.82,38.29Z"/>
  <path class="f" d="M0,2.9v32H19.72L54.63,0H2.91A2.9,2.9,0,0,0,0,2.9Z"/>
  <g>
    <path class="g" d="M7.41,7.48c0-1.11.38-1.72,1.11-1.72s1.1.61,1.1,1.72S9.24,9.2,8.52,9.2,7.41,8.58,7.41,7.48Zm1.75,0c0-1-.23-1.37-.64-1.37s-.65.39-.65,1.37.25,1.37.65,1.37S9.16,8.45,9.16,7.48Zm-.64-.32a.32.32,0,1,1-.32.32A.32.32,0,0,1,8.52,7.16Z"/>
    <path class="g" d="M11.41,6.3l-.8.49-.21-.31,1.06-.67h.39v3h.69v.36H10.59V8.79h.82Z"/>
    <path class="g" d="M18.06,6.26l.21.34-1.69,1,1.69,1L18,9,16.2,7.84V7.41Z"/>
    <path class="g" d="M20.74,9.15V7.58H19.53V9.15h-.46V5.81h.46v1.4h1.21V5.81h.46V9.15Z"/>
    <path class="g" d="M23.26,6.2v3H22.8V6.2h-1V5.81h2.54l0,.39Z"/>
    <path class="g" d="M26.82,9.15l-.09-1.71c0-.47,0-1,0-1.12h0l-.53,2.23h-.44l-.55-2.23h0c0,.11,0,.69,0,1.12l-.08,1.71h-.43l.19-3.34h.61L26,8h0l.49-2.23h.62l.19,3.34Z"/>
    <path class="g" d="M28,9.15V5.81h.46V8.74H30L30,9.15Z"/>
    <path class="g" d="M32.8,7.41v.43L31,9l-.23-.33,1.69-1-1.69-1,.21-.34Z"/>
    <path class="g" d="M7.41,13.28c0-1.11.38-1.73,1.11-1.73s1.1.62,1.1,1.73S9.24,15,8.52,15,7.41,14.38,7.41,13.28Zm1.75,0c0-1-.23-1.37-.64-1.37s-.65.39-.65,1.37.25,1.37.65,1.37S9.16,14.25,9.16,13.28ZM8.52,13a.32.32,0,1,1-.32.32A.32.32,0,0,1,8.52,13Z"/>
    <path class="g" d="M10.89,14.57h1.52l-.05.38h-2v-.36c1.15-1.14,1.51-1.6,1.51-2.1a.53.53,0,0,0-.57-.56.81.81,0,0,0-.67.35l-.31-.21a1.24,1.24,0,0,1,1-.52.92.92,0,0,1,1,.92C12.34,13.05,11.88,13.63,10.89,14.57Z"/>
    <path class="g" d="M18.06,12.06l.21.34-1.69,1,1.69,1L18,14.8,16.2,13.64v-.43Z"/>
    <path class="g" d="M20.05,15h-.92V11.61H20c.59,0,1.19.19,1.19.84a.72.72,0,0,1-.58.72h0a.79.79,0,0,1,.72.81C21.31,14.72,20.67,15,20.05,15Zm0-3h-.47v1h.51c.39,0,.6-.16.6-.54S20.46,12,20.06,12Zm.07,1.41h-.54v1.18h.52c.33,0,.72-.09.72-.57S20.51,13.39,20.13,13.39Z"/>
    <path class="g" d="M23,15c-.82,0-1.24-.68-1.24-1.71s.42-1.74,1.24-1.74,1.24.7,1.24,1.73S23.86,15,23,15Zm0-3.07c-.54,0-.76.48-.76,1.36s.23,1.34.76,1.34.76-.47.76-1.35S23.58,11.93,23,11.93Z"/>
    <path class="g" d="M25.66,15h-.78V11.61h.73c.79,0,1.57.27,1.57,1.65S26.37,15,25.66,15Zm.05-3h-.37v2.6h.37c.48,0,1-.24,1-1.32S26.16,12,25.71,12Z"/>
    <path class="g" d="M29.08,13.66V15h-.46V13.67l-1.13-2.06H28l.85,1.63h0l.86-1.63h.48Z"/>
    <path class="g" d="M32.8,13.21v.43L31,14.8l-.23-.33,1.69-1-1.69-1,.21-.34Z"/>
    <path class="g" d="M7.41,19.08c0-1.11.38-1.73,1.11-1.73s1.1.62,1.1,1.73-.38,1.72-1.1,1.72S7.41,20.18,7.41,19.08Zm1.75,0c0-1-.23-1.37-.64-1.37s-.65.39-.65,1.37.25,1.37.65,1.37S9.16,20.05,9.16,19.08Zm-.64-.32a.32.32,0,1,1-.32.32A.32.32,0,0,1,8.52,18.76Z"/>
    <path class="g" d="M11.29,20.8a1.34,1.34,0,0,1-1-.45l.29-.24a1,1,0,0,0,.74.33.64.64,0,0,0,.72-.66c0-.46-.29-.62-.68-.62h-.26l.06-.34h.17a.56.56,0,0,0,.62-.57.55.55,0,0,0-.61-.54,1,1,0,0,0-.71.3l-.24-.26a1.4,1.4,0,0,1,1-.4.93.93,0,0,1,1,.84.78.78,0,0,1-.64.77v0a.78.78,0,0,1,.74.81A1.06,1.06,0,0,1,11.29,20.8Z"/>
    <path class="g" d="M18.06,17.86l.21.34-1.69,1,1.69,1-.23.32L16.2,19.44V19Z"/>
    <path class="g" d="M20.74,20.74V19.18H19.53v1.56h-.46V17.41h.46v1.4h1.21v-1.4h.46v3.33Z"/>
    <path class="g" d="M22.59,17.78v1.09h1.23v.37H22.59v1.14H24.1v.36h-2V17.41h1.93l-.06.37Z"/>
    <path class="g" d="M26.57,19.91H25.29l-.26.83h-.46l1.08-3.33h.59l1.08,3.33h-.49Zm-1.17-.37h1.06L26,17.83h0Z"/>
    <path class="g" d="M28.56,20.74h-.78V17.41h.73c.79,0,1.57.27,1.57,1.65S29.27,20.74,28.56,20.74Zm.05-3h-.37v2.6h.38c.47,0,1-.24,1-1.32S29.07,17.78,28.61,17.78Z"/>
    <path class="g" d="M31.3,17.78v1.09h1.23v.37H31.3v1.14h1.51v.36h-2V17.41h1.93l-.05.37Z"/>
    <path class="g" d="M35,19.27l1,1.47h-.55l-.89-1.41h-.42v1.41h-.46V17.41h.87c.84,0,1.27.32,1.27.95A.94.94,0,0,1,35,19.27Zm-.42-1.5h-.46V19h.46c.47,0,.73-.17.73-.62S35.09,17.77,34.6,17.77Z"/>
    <path class="g" d="M38.6,19v.43l-1.84,1.15-.23-.32,1.69-1-1.69-1,.21-.34Z"/>
    <path class="g" d="M7.41,24.88c0-1.11.38-1.73,1.11-1.73s1.1.62,1.1,1.73-.38,1.72-1.1,1.72S7.41,26,7.41,24.88Zm1.75,0c0-1-.23-1.37-.64-1.37s-.65.39-.65,1.37.25,1.37.65,1.37S9.16,25.85,9.16,24.88Zm-.64-.32a.32.32,0,1,1-.32.32A.32.32,0,0,1,8.52,24.56Z"/>
    <path class="g" d="M12.1,25.75v.79h-.43v-.79H10.3v-.32l1-2.28.38.16-.89,2.08h.9l0-.87h.39v.87h.42v.36Z"/>
    <path class="g" d="M18.06,23.66l.21.34-1.69,1,1.69,1L18,26.4,16.2,25.24v-.43Z"/>
    <path class="g" d="M19.28,27.05l-.35-.16L21,22.63l.36.17Z"/>
    <path class="g" d="M23.65,26.54V25H22.44v1.56H22V23.21h.46v1.4h1.21v-1.4h.46v3.33Z"/>
    <path class="g" d="M25.49,23.58v1.09h1.24V25H25.49v1.14H27v.36H25V23.21H27l-.05.37Z"/>
    <path class="g" d="M29.48,25.71H28.2l-.26.83h-.46l1.08-3.33h.58l1.08,3.33h-.48Zm-1.17-.37h1.06l-.52-1.71h0Z"/>
    <path class="g" d="M31.47,26.54h-.78V23.21h.72c.79,0,1.58.27,1.58,1.65S32.18,26.54,31.47,26.54Zm.05-3h-.37v2.6h.37c.48,0,1-.24,1-1.32S32,23.58,31.52,23.58Z"/>
    <path class="g" d="M34.21,23.58v1.09h1.23V25H34.21v1.14h1.5v.36h-2V23.21h1.93l-.06.37Z"/>
    <path class="g" d="M37.93,25.07l1,1.47h-.54l-.89-1.41H37v1.41h-.46V23.21h.88c.83,0,1.27.32,1.27.95A.94.94,0,0,1,37.93,25.07Zm-.43-1.5H37v1.21h.46c.47,0,.74-.17.74-.62S38,23.57,37.5,23.57Z"/>
    <path class="g" d="M41.51,24.81v.43L39.66,26.4l-.23-.33,1.7-1-1.7-1,.21-.34Z"/>
  </g>
</svg>
