<svg xmlns="http://www.w3.org/2000/svg" viewBox="0 0 365.41 102.35"><defs><style>.a,.f,.g{fill:#9dbf15;}.a,.b,.c,.d,.e,.f,.g{fill-rule:evenodd;}.b{fill:#1a1a18;}.c,.d,.e{fill:#fff;}.d,.f,.g{stroke:#fff;}.d,.e,.f,.g{stroke-miterlimit:22.93;}.d{stroke-width:1.2px;}.e{stroke:#9dbf15;stroke-width:1.98px;}.f{stroke-width:3.12px;}.g{stroke-width:2.55px;}</style></defs><title>Logo Green Frog</title><path class="a" d="M155,68.26q0,7.53-4.13,12-4.26,4.64-11.74,4.63a26.46,26.46,0,0,1-6.81-.8A65.24,65.24,0,0,1,126,81.69l1-2.82A24.16,24.16,0,0,0,139.3,82.1q6.21,0,9.64-3.86,3.28-3.69,3.29-10V63.74a20.34,20.34,0,0,1-3.69,3.34,16.56,16.56,0,0,1-3.37,2,18.25,18.25,0,0,1-6.34,1.1c-4.94,0-8.92-1.55-11.91-4.66s-4.51-7.17-4.51-12.13,1.44-9.09,4.34-12.12,6.91-4.7,11.94-4.7a15.53,15.53,0,0,1,13.54,7.17V37.12H155V68.26ZM152.23,60V55.05q0-6.78-3.22-11a11.94,11.94,0,0,0-10.18-4.82,12.73,12.73,0,0,0-9.9,4,14.43,14.43,0,0,0-3.55,10.16q0,6.38,3.48,10.19,3.63,4,10,4a14.28,14.28,0,0,0,6.36-1.38,17.6,17.6,0,0,0,7-6.17Zm20.88-15.56-.19-.08c.2,0-.9-.12-3.25-.41a8.27,8.27,0,0,0-6.79,3.52q-2.62,3.38-2.63,9.67V69.58h-2.32V41.76h2.32v5.45A10.74,10.74,0,0,1,170,41.62c.33,0,1.36.2,3.11.47v2.32Zm30.67,10.77a4.56,4.56,0,0,1-.14,1.26H178.29a12,12,0,0,0,3.49,8.25,11.37,11.37,0,0,0,8.32,3.12,17.43,17.43,0,0,0,5.43-.89,10.79,10.79,0,0,0,4.72-2.66L202,65.94q-4,4.13-11.93,4.13a13.69,13.69,0,0,1-14.36-14.39,14.32,14.32,0,0,1,3.92-10.33,14,14,0,0,1,24.11,9.83Zm-2.54-1a11.81,11.81,0,0,0-3.54-7.7,12.06,12.06,0,0,0-15.83,0,11.75,11.75,0,0,0-3.58,7.7Zm33.23,1a4.56,4.56,0,0,1-.14,1.26H209a11.91,11.91,0,0,0,3.48,8.25,11.37,11.37,0,0,0,8.32,3.12,17.43,17.43,0,0,0,5.43-.89,10.79,10.79,0,0,0,4.72-2.66l1.79,1.68q-4,4.13-11.93,4.13a13.69,13.69,0,0,1-14.36-14.39,14.32,14.32,0,0,1,3.92-10.33,14,14,0,0,1,24.11,9.83Zm-2.54-1a11.81,11.81,0,0,0-3.54-7.7,12.06,12.06,0,0,0-15.83,0,11.69,11.69,0,0,0-3.57,7.7Zm27.87,15.4h-2.33V53.15a9.84,9.84,0,0,0-2.37-6.81,8.38,8.38,0,0,0-6.61-2.82A8.79,8.79,0,0,0,242,46a8.93,8.93,0,0,0-2.43,6.53V69.58h-2.4V41.69h2.4v3.85A11.59,11.59,0,0,1,257,44.91a13.44,13.44,0,0,1,2.83,8.94Z"/><path class="b" d="M166.13,77.84h2.11l4.22,12h-2.17l-.86-2.47h-4.5l-.87,2.47h-2.17l4.24-12ZM167.19,81l-1.49,4.12h3L167.19,81ZM179.88,81h2v7.58a5.31,5.31,0,0,1-.83,3.3,4,4,0,0,1-3.35,1.43,5.35,5.35,0,0,1-2-.33,3.41,3.41,0,0,1-1.37-1,3.78,3.78,0,0,1-.83-1.53h2.25a1.9,1.9,0,0,0,.77.56,3,3,0,0,0,1.12.19,2.64,2.64,0,0,0,1.32-.28,1.55,1.55,0,0,0,.71-.7,3.87,3.87,0,0,0,.21-1.51,3.46,3.46,0,0,1-1.13.85,3.37,3.37,0,0,1-1.34.26,3.56,3.56,0,0,1-2.78-1.29,5.3,5.3,0,0,1,.07-6.63,3.44,3.44,0,0,1,2.59-1.15,3.14,3.14,0,0,1,1.33.28,4,4,0,0,1,1.26.92V81Zm-2.13,1.87a2,2,0,0,0-1.6.7,2.53,2.53,0,0,0-.63,1.76,2.59,2.59,0,0,0,.65,1.81,2.06,2.06,0,0,0,1.61.7,2,2,0,0,0,1.57-.69,2.61,2.61,0,0,0,.62-1.8,2.58,2.58,0,0,0-.62-1.79,2.07,2.07,0,0,0-1.6-.69ZM192.07,86h-6.54a2.46,2.46,0,0,0,.76,1.5,2.2,2.2,0,0,0,1.56.56,2.57,2.57,0,0,0,2-.87l1.71.88A4.2,4.2,0,0,1,190,89.55a4.54,4.54,0,0,1-2.12.47,4,4,0,0,1-3.1-1.31,4.67,4.67,0,0,1-1.2-3.28,4.84,4.84,0,0,1,1.2-3.36,3.86,3.86,0,0,1,3-1.33,4,4,0,0,1,3.12,1.33,5.06,5.06,0,0,1,1.2,3.52V86Zm-2-1.74a2.19,2.19,0,0,0-.79-1.18,2.24,2.24,0,0,0-1.38-.45,2.35,2.35,0,0,0-1.5.51,3,3,0,0,0-.74,1.12ZM193.73,81h2v.92A4.75,4.75,0,0,1,197,81a2.89,2.89,0,0,1,1.15-.24,2.68,2.68,0,0,1,2.05.91,3.38,3.38,0,0,1,.71,2.31v5.85h-2V85.94a10.31,10.31,0,0,0-.13-2.1,1.52,1.52,0,0,0-.45-.8,1.23,1.23,0,0,0-.8-.27,1.45,1.45,0,0,0-1.07.45,2.58,2.58,0,0,0-.61,1.25,10.74,10.74,0,0,0-.09,1.79v3.55h-2V81Zm17.12,1.8-1.69,1a2.94,2.94,0,0,0-.95-.75,2.73,2.73,0,0,0-2.94.52,2.66,2.66,0,0,0-.7,1.9,2.54,2.54,0,0,0,.68,1.84A2.35,2.35,0,0,0,207,88a2.51,2.51,0,0,0,2.13-1l1.6,1.2a4.67,4.67,0,0,1-7,.47,4.73,4.73,0,0,1-1.22-3.23,4.89,4.89,0,0,1,.59-2.36,4.49,4.49,0,0,1,1.65-1.7,4.59,4.59,0,0,1,2.36-.61,4.5,4.5,0,0,1,2.18.52,4.3,4.3,0,0,1,1.57,1.49Zm2.79-5.43a1.19,1.19,0,0,1,.92.42,1.44,1.44,0,0,1,.39,1,1.47,1.47,0,0,1-.38,1,1.19,1.19,0,0,1-.91.42,1.2,1.2,0,0,1-.93-.43,1.52,1.52,0,0,1-.38-1,1.4,1.4,0,0,1,.38-1,1.19,1.19,0,0,1,.91-.41Zm-1,3.63h2v9.14a5.87,5.87,0,0,1-.23,1.88,1.88,1.88,0,0,1-.72,1,2,2,0,0,1-1.18.34,4.49,4.49,0,0,1-1.53-.34V91.17a1.84,1.84,0,0,0,.85.25.68.68,0,0,0,.58-.25,1.57,1.57,0,0,0,.19-.92V81Zm10,0h2v8.86h-2v-1a3.73,3.73,0,0,1-1.19.89,3.17,3.17,0,0,1-1.31.27,3.48,3.48,0,0,1-2.72-1.33,4.82,4.82,0,0,1-1.15-3.29A5,5,0,0,1,217.4,82a3.42,3.42,0,0,1,2.7-1.3,3.38,3.38,0,0,1,1.38.29,3.79,3.79,0,0,1,1.18.9V81Zm-2.14,1.82a2,2,0,0,0-1.57.73,2.72,2.72,0,0,0-.63,1.86,2.76,2.76,0,0,0,.64,1.89,2.07,2.07,0,0,0,3.16,0,2.8,2.8,0,0,0,.64-1.9,2.72,2.72,0,0,0-.64-1.87,2,2,0,0,0-1.6-.72Zm10.58-4.93h2.08v12H231.1v-12ZM235.3,81h2v.92a4.75,4.75,0,0,1,1.26-.89,2.89,2.89,0,0,1,1.15-.24,2.67,2.67,0,0,1,2,.91A3.38,3.38,0,0,1,242.5,84v5.85h-2V85.94a10.31,10.31,0,0,0-.13-2.1,1.46,1.46,0,0,0-.45-.8,1.23,1.23,0,0,0-.8-.27,1.43,1.43,0,0,0-1.06.45,2.5,2.5,0,0,0-.62,1.25,10.74,10.74,0,0,0-.09,1.79v3.55h-2V81Zm9.42-3.26h2V81H248v1.92h-1.21v6.94h-2V82.87h-1V81h1V77.69ZM257.18,86h-6.53a2.4,2.4,0,0,0,.75,1.5,2.2,2.2,0,0,0,1.56.56,2.57,2.57,0,0,0,1.95-.87l1.71.88a4.2,4.2,0,0,1-1.53,1.47A4.54,4.54,0,0,1,253,90a4,4,0,0,1-3.1-1.31,4.67,4.67,0,0,1-1.2-3.28,4.84,4.84,0,0,1,1.2-3.36,3.86,3.86,0,0,1,3-1.33A4,4,0,0,1,256,82.07a5.06,5.06,0,0,1,1.2,3.52V86Zm-2-1.74a2.19,2.19,0,0,0-.79-1.18,2.24,2.24,0,0,0-1.38-.45,2.35,2.35,0,0,0-1.5.51,3,3,0,0,0-.74,1.12ZM258.37,81h1.75v1.13a2.38,2.38,0,0,1,.75-1,1.72,1.72,0,0,1,1-.34,1.68,1.68,0,0,1,.82.23l-.63,1.91a1.28,1.28,0,0,0-.59-.19c-.31,0-.57.21-.79.63a6.41,6.41,0,0,0-.32,2.49v4h-2V81Zm11.36,0h2v8.86h-2v-1a3.73,3.73,0,0,1-1.19.89,3.15,3.15,0,0,1-1.3.27,3.49,3.49,0,0,1-2.73-1.33,4.82,4.82,0,0,1-1.15-3.29A5,5,0,0,1,264.47,82a3.43,3.43,0,0,1,2.7-1.3,3.38,3.38,0,0,1,1.38.29,3.68,3.68,0,0,1,1.18.9V81Zm-2.14,1.82a2,2,0,0,0-1.57.73,2.72,2.72,0,0,0-.63,1.86,2.81,2.81,0,0,0,.64,1.89,2.07,2.07,0,0,0,3.16,0,2.75,2.75,0,0,0,.64-1.9,2.67,2.67,0,0,0-.64-1.87,2,2,0,0,0-1.6-.72Zm6.24-5.23h2V84.6l3-3.65h2.54l-3.48,4.23,3.92,4.63h-2.53l-3.45-4.09v4.09h-2V77.54Zm9.1.15h2V81h1.21v1.92H285v6.94h-2V82.87h-1V81h1V77.69ZM286.36,81h2.09l2.1,5.55L292.88,81H295L289.88,93H287.8l1.65-3.89L286.36,81Zm8.88,0h2l1.65,5,1.76-5h1.22l1.73,5,1.63-5h2l-2.94,8.86H303l-1.75-5-1.78,5h-1.28L295.24,81Zm13.11,0h2v.92a4.89,4.89,0,0,1,1.25-.89,2.93,2.93,0,0,1,1.15-.24,2.67,2.67,0,0,1,2,.91,3.33,3.33,0,0,1,.71,2.31v5.85h-2V85.94a11.13,11.13,0,0,0-.13-2.1A1.47,1.47,0,0,0,313,83a1.19,1.19,0,0,0-.8-.27,1.44,1.44,0,0,0-1.06.45,2.41,2.41,0,0,0-.61,1.25,10.74,10.74,0,0,0-.09,1.79v3.55h-2V81Zm15.18,0h2v8.86h-2v-1a3.73,3.73,0,0,1-1.19.89A3.17,3.17,0,0,1,321,90a3.48,3.48,0,0,1-2.72-1.33,4.82,4.82,0,0,1-1.15-3.29A5,5,0,0,1,318.27,82a3.42,3.42,0,0,1,2.7-1.3,3.38,3.38,0,0,1,1.38.29,3.79,3.79,0,0,1,1.18.9V81Zm-2.14,1.82a2,2,0,0,0-1.57.73,2.72,2.72,0,0,0-.63,1.86,2.76,2.76,0,0,0,.64,1.89,2.07,2.07,0,0,0,3.16,0,2.79,2.79,0,0,0,.63-1.9,2.71,2.71,0,0,0-.63-1.87A2,2,0,0,0,321.39,82.77Z"/><path class="b" d="M282.89,31.5l-3-.63a8.31,8.31,0,0,0-1.79-.19,5.75,5.75,0,0,0-5,2.42,9.37,9.37,0,0,0-1.49,5.53v3.42h9V44.3h-9V69.86h-2.33V38.4a11,11,0,0,1,2.15-7,7.8,7.8,0,0,1,6.51-3,10.45,10.45,0,0,1,2.35.26l2.59.57V31.5Zm16.28,13.19-.19-.07c.2,0-.89-.13-3.25-.41a8.25,8.25,0,0,0-6.79,3.52q-2.62,3.38-2.62,9.67V69.86H284V42.05h2.33v5.44a10.73,10.73,0,0,1,9.74-5.59c.33,0,1.37.2,3.11.48v2.31ZM329.92,56a14.41,14.41,0,0,1-3.87,10.34,14.76,14.76,0,0,1-20.32,0A14.31,14.31,0,0,1,301.82,56a14.33,14.33,0,0,1,3.91-10.34,14.7,14.7,0,0,1,20.36,0A14.31,14.31,0,0,1,329.92,56Zm-2.55,0a12.5,12.5,0,0,0-3-8.69,10.84,10.84,0,0,0-8.44-3.46,11,11,0,0,0-8.48,3.46A12.39,12.39,0,0,0,304.36,56a12.38,12.38,0,0,0,3.05,8.68,10.91,10.91,0,0,0,8.48,3.46,10.77,10.77,0,0,0,8.4-3.5A12.36,12.36,0,0,0,327.37,56Zm38,12.59q0,7.53-4.13,12Q357,85.2,349.54,85.19a26.35,26.35,0,0,1-6.81-.8c-1.16-.32-3.27-1.13-6.39-2.42l1-2.81a24.25,24.25,0,0,0,12.35,3.23c4.15,0,7.36-1.3,9.64-3.86s3.3-5.78,3.3-10V64a20.45,20.45,0,0,1-3.7,3.34,16.28,16.28,0,0,1-3.36,2,18.25,18.25,0,0,1-6.34,1.1c-4.94,0-8.93-1.55-11.92-4.67s-4.5-7.16-4.5-12.12,1.44-9.09,4.34-12.12,6.9-4.7,11.94-4.7A15.54,15.54,0,0,1,362.61,44V37.41h2.8V68.55Zm-2.8-8.3V55.34q0-6.78-3.23-11.05a11.91,11.91,0,0,0-10.17-4.82,12.72,12.72,0,0,0-9.9,4,14.39,14.39,0,0,0-3.56,10.16q0,6.38,3.49,10.18c2.42,2.65,5.74,4,10,4a14.24,14.24,0,0,0,6.35-1.38A17.51,17.51,0,0,0,362.61,60.25Z"/><path class="a" d="M51.17,0h0a51.33,51.33,0,0,1,51.18,51.18h0a51.33,51.33,0,0,1-51.18,51.17h0A51.32,51.32,0,0,1,0,51.18H0A51.33,51.33,0,0,1,51.17,0Z"/><path class="c" d="M82.53,52.18a2.58,2.58,0,0,0,1.27-4.65c-1.38-1.1-3.09-.65-4.69-.82a1.1,1.1,0,0,1-.47-.13l-.06,0a2,2,0,0,1-.52-2.23c.82-1.57,4.26-1.52,5.41-1a3.57,3.57,0,0,0,4.51-.9A2.83,2.83,0,0,0,88,38.88a3.14,3.14,0,0,0-4.21-1.17,4.69,4.69,0,0,0-1.11,1.06,7.58,7.58,0,0,1-3.31,1.57,5.86,5.86,0,0,1-1.87.13,1.46,1.46,0,0,1-.3-.07,2.24,2.24,0,0,1-1.24-1,2.62,2.62,0,0,1,1.35-3.78c1.32-.57,2.3.12,3.08-.14a2.51,2.51,0,0,0,1.83-2.39c-.26-3.09-3.45-4.48-5.33-1.5-2,2.74-5,4.43-7.61,6.71-1.3,1.08-3.53,2-4.3,2.82-1.72,1.7,2.21,1.66,3.53,2,4.72,1,5.88,3.17,9.1,5.64C79.82,50.42,79.56,52.05,82.53,52.18Z"/><path class="d" d="M70.1,10.89C83.43,26.18,56.28,64.35,52.51,49.42,50.18,40.18,57.16,3.36,68.75,9.89Z"/><path class="c" d="M34.31,99.49a4.22,4.22,0,0,0,7-3.7C41,92.91,38.59,91.38,37,89.27a1.79,1.79,0,0,1-.38-.72l0-.12a3.28,3.28,0,0,1,2.1-3.13c2.79-.77,6.59,3.4,7.27,5.34.91,2.61,3.18,4.8,6.13,4.37a4.63,4.63,0,0,0,4.27-3.86c.58-2.58-.53-5.61-3.33-6.34a8,8,0,0,0-2.51-.14A12.26,12.26,0,0,1,45,82.48a9.47,9.47,0,0,1-2.26-2.09,3.91,3.91,0,0,1-.26-.44,3.69,3.69,0,0,1-.23-2.55,4.28,4.28,0,0,1,6-2.64c2.17.94,2.45,2.89,3.63,3.54a4.1,4.1,0,0,0,4.9-.51c3.41-3.77,1.49-9.15-4.18-8-5.47.74-10.93-1-16.56-1.57-2.75-.34-6.4-1.92-8.19-2-4-.14.5,4.51,1.63,6.41,4,6.81,2.81,10.58,3.46,17.19C33.37,94.27,31.13,95.8,34.31,99.49Z"/><path class="d" d="M9.35,67.51c12.94,15.62,55-5,40.86-11.15C41.47,52.57,4,53.52,8.59,66Z"/><path class="e" d="M27.65,41.9c-2.35-15,4.24-19.5,18.47-18.43,8.37.46,7.32-2.67,13.73-2.77C71,21.16,72.13,31.39,72.66,40.44c.44,10.47-1.59,18.89-10.6,25.17-4.62,3.22-14.52,3-20.28,3.34-12.92.75-16.72-7.47-13.29-19,.73-2.21-.25-5.28-.74-7.57Z"/><path class="f" d="M27.78,23.75A15.89,15.89,0,1,1,11.89,39.64,15.88,15.88,0,0,1,27.78,23.75Z"/><path class="g" d="M51.44,16a6.62,6.62,0,1,1-6.62,6.62A6.61,6.61,0,0,1,51.44,16Z"/><path class="c" d="M24.3,40.69C25.17,19,34.41,30,30.14,46.32c-2.7,10.33-5.36-.35-5.83-4.93Z"/></svg>
