<svg xmlns="http://www.w3.org/2000/svg" viewBox="0 0 95 95"><defs><style>.a{fill:#fff;}.b{fill:#f0f1f1;}.c{fill:#f4d0a1;}.d{fill:#edbc7c;}.e{fill:#f79392;}.f{fill:#e2e4e5;}.g{fill:#9dbf3b;}.h{fill:#facb1b;}.i{fill:#fbe158;}.j{fill:#3e3e3f;}.k{fill:#9dd83b;}.l{fill:#f7b4b4;}</style></defs><title>ikonka greenfrog</title><path class="a" d="M12.75,16.7a5.7,5.7,0,0,1,5.7-5.7h41.8L84,31V100.3a5.7,5.7,0,0,1-5.7,5.7H18.45a5.7,5.7,0,0,1-5.7-5.7Z" transform="translate(-12.75 -11)"/><path class="b" d="M60.25,11V25.25A5.7,5.7,0,0,0,66,31H84Z" transform="translate(-12.75 -11)"/><polygon class="c" points="80.16 27.46 87.58 11.88 95 27.46 95 84.61 80.16 84.61 80.16 27.46"/><polygon class="d" points="95 35.63 95 27.46 87.58 11.88 87.58 35.63 95 35.63"/><path class="e" d="M107.75,101.55A4.45,4.45,0,0,1,103.3,106H97.36a4.45,4.45,0,0,1-4.45-4.45v-3h14.84Z" transform="translate(-12.75 -11)"/><path class="f" d="M70.64,43.66a1.48,1.48,0,0,1-1.48,1.48H46.89a1.49,1.49,0,0,1-1.48-1.48h0a1.49,1.49,0,0,1,1.48-1.49H69.16a1.49,1.49,0,0,1,1.48,1.49Z" transform="translate(-12.75 -11)"/><path class="f" d="M61.74,51.08a1.49,1.49,0,0,1-1.49,1.48H46.89a1.49,1.49,0,0,1-1.48-1.48h0a1.49,1.49,0,0,1,1.48-1.49H60.25a1.49,1.49,0,0,1,1.49,1.49Z" transform="translate(-12.75 -11)"/><path class="f" d="M70.64,63a1.49,1.49,0,0,1-1.48,1.49H46.89A1.49,1.49,0,0,1,45.41,63h0a1.49,1.49,0,0,1,1.48-1.48H69.16A1.48,1.48,0,0,1,70.64,63Z" transform="translate(-12.75 -11)"/><path class="f" d="M61.74,70.38a1.49,1.49,0,0,1-1.49,1.48H46.89a1.49,1.49,0,0,1-1.48-1.48h0a1.49,1.49,0,0,1,1.48-1.49H60.25a1.49,1.49,0,0,1,1.49,1.49Z" transform="translate(-12.75 -11)"/><path class="f" d="M70.64,82.25a1.48,1.48,0,0,1-1.48,1.48H46.89a1.48,1.48,0,0,1-1.48-1.48h0a1.48,1.48,0,0,1,1.48-1.48H69.16a1.48,1.48,0,0,1,1.48,1.48Z" transform="translate(-12.75 -11)"/><path class="f" d="M61.74,89.67a1.49,1.49,0,0,1-1.49,1.49H46.89a1.49,1.49,0,0,1-1.48-1.49h0a1.49,1.49,0,0,1,1.48-1.48H60.25a1.49,1.49,0,0,1,1.49,1.48Z" transform="translate(-12.75 -11)"/><path class="g" d="M30.67,54.05l-5.61-5.61a1.48,1.48,0,1,1,2.1-2.09l3.31,3.3L36.85,42a1.48,1.48,0,0,1,2.28,1.9Z" transform="translate(-12.75 -11)"/><path class="g" d="M30.67,73.34l-5.61-5.6a1.48,1.48,0,0,1,2.1-2.1L30.47,69l6.38-7.66a1.48,1.48,0,0,1,2.28,1.9Z" transform="translate(-12.75 -11)"/><path class="g" d="M30.67,92.64,25.06,87a1.48,1.48,0,0,1,2.1-2.1l3.31,3.3,6.38-7.65a1.48,1.48,0,1,1,2.28,1.9Z" transform="translate(-12.75 -11)"/><rect class="h" x="80.16" y="83.13" width="14.84" height="4.45"/><rect class="i" x="80.16" y="84.61" width="7.42" height="2.97"/><path class="j" d="M100.35,22.85,97.6,28.64a3.14,3.14,0,0,0,5.51,0Z" transform="translate(-12.75 -11)"/><path class="k" d="M104,40.69A3.71,3.71,0,0,1,100.46,38a.13.13,0,0,0-.26,0,3.71,3.71,0,0,1-7,.41.14.14,0,0,0-.27,0v57.2h14.84V38.41a.13.13,0,0,0-.26,0A3.72,3.72,0,0,1,104,40.69Z" transform="translate(-12.75 -11)"/><path class="g" d="M92.91,95.61V38.45a.14.14,0,0,1,.28-.05,3.71,3.71,0,0,0,7-.47.06.06,0,1,1,.12,0V95.61Z" transform="translate(-12.75 -11)"/><path class="l" d="M92.91,98.58v3A4.45,4.45,0,0,0,97.36,106h3V98.58Z" transform="translate(-12.75 -11)"/><g></g></svg>