<svg xmlns="http://www.w3.org/2000/svg" viewBox="0 0 95 95"><defs><style>.a{fill:#fff;}.b{fill:#f0f1f1;}.c{fill:#f4d0a1;}.d{fill:#edbc7c;}.e{fill:#f79392;}.f{fill:#e2e4e5;}.g{fill:#9dbf3b;}.h{fill:#facb1b;}.i{fill:#fbe158;}.j{fill:#3e3e3f;}.k{fill:#9dd83b;}.l{fill:#f7b4b4;}</style></defs><title>ikonka</title><path class="a" d="M0,5.7A5.7,5.7,0,0,1,5.7,0H47.5L71.25,20V89.3a5.7,5.7,0,0,1-5.7,5.7H5.7A5.7,5.7,0,0,1,0,89.3Z"/><path class="b" d="M47.5,0V14.25A5.7,5.7,0,0,0,53.2,20h18Z"/><polygon class="c" points="80.16 27.46 87.58 11.88 95 27.46 95 84.61 80.16 84.61 80.16 27.46"/><polygon class="d" points="95 35.63 95 27.46 87.58 11.88 87.58 35.63 95 35.63"/><path class="e" d="M95,90.55A4.45,4.45,0,0,1,90.55,95H84.61a4.45,4.45,0,0,1-4.45-4.45v-3H95Z"/><path class="f" d="M57.89,32.66a1.49,1.49,0,0,1-1.48,1.48H34.14a1.48,1.48,0,0,1-1.48-1.48h0a1.49,1.49,0,0,1,1.48-1.49H56.41a1.49,1.49,0,0,1,1.48,1.49Z"/><path class="f" d="M49,40.08a1.48,1.48,0,0,1-1.48,1.48H34.14a1.48,1.48,0,0,1-1.48-1.48h0a1.49,1.49,0,0,1,1.48-1.49H47.5A1.49,1.49,0,0,1,49,40.08Z"/><path class="f" d="M57.89,52a1.49,1.49,0,0,1-1.48,1.49H34.14A1.49,1.49,0,0,1,32.66,52h0a1.48,1.48,0,0,1,1.48-1.48H56.41A1.49,1.49,0,0,1,57.89,52Z"/><path class="f" d="M49,59.38a1.48,1.48,0,0,1-1.48,1.48H34.14a1.48,1.48,0,0,1-1.48-1.48h0a1.49,1.49,0,0,1,1.48-1.49H47.5A1.49,1.49,0,0,1,49,59.38Z"/><path class="f" d="M57.89,71.25a1.48,1.48,0,0,1-1.48,1.48H34.14a1.48,1.48,0,0,1-1.48-1.48h0a1.48,1.48,0,0,1,1.48-1.48H56.41a1.48,1.48,0,0,1,1.48,1.48Z"/><path class="f" d="M49,78.67a1.49,1.49,0,0,1-1.48,1.49H34.14a1.49,1.49,0,0,1-1.48-1.49h0a1.48,1.48,0,0,1,1.48-1.48H47.5A1.48,1.48,0,0,1,49,78.67Z"/><path class="g" d="M17.91,43.05l-5.6-5.61a1.48,1.48,0,1,1,2.1-2.09l3.3,3.3L24.09,31a1.48,1.48,0,1,1,2.28,1.9Z"/><path class="g" d="M17.91,62.34l-5.6-5.6a1.48,1.48,0,1,1,2.1-2.1L17.71,58l6.38-7.66a1.48,1.48,0,1,1,2.28,1.9Z"/><path class="g" d="M17.91,81.64,12.31,76a1.48,1.48,0,0,1,2.1-2.1l3.3,3.3,6.38-7.65a1.48,1.48,0,1,1,2.28,1.9Z"/><rect class="h" x="80.16" y="83.13" width="14.84" height="4.45"/><rect class="i" x="80.16" y="84.61" width="7.42" height="2.97"/><path class="j" d="M87.6,11.85l-2.76,5.79a3.14,3.14,0,0,0,5.51,0Z"/><path class="k" d="M91.29,29.69A3.7,3.7,0,0,1,87.71,27a.13.13,0,0,0-.26,0,3.71,3.71,0,0,1-7,.41.13.13,0,0,0-.26.05v57.2H95V27.41a.13.13,0,0,0-.26-.05A3.73,3.73,0,0,1,91.29,29.69Z"/><path class="g" d="M80.16,84.61V27.45a.14.14,0,0,1,.28-.05,3.71,3.71,0,0,0,7-.47c0-.08.13-.07.13,0V84.61Z"/><path class="l" d="M80.16,87.58v3A4.45,4.45,0,0,0,84.61,95h3V87.58Z"/></svg>