<svg class="project" viewBox="0 0 50.74 56.71" xmlns="http://www.w3.org/2000/svg">
<defs>
<style>.project--a {
        fill: #59b9c6;
      }
      .project--b {
        fill: #fff;
      }
      .project--c {
        fill: #e0e1e1;
      }
      .project--d {
        fill: #f05e59;
      }
      .project--e {
        fill: #fbbb29;
      }
      .project--f {
        fill: #4bb649;
      }
      .project--g {
        opacity: 0.25;
      }
      .project--h {
        fill: #576773;
      }
      .project--i {
        fill: #46525b;
      }
      .project--j {
        fill: #9dbe3b;
      }
      .project--k {
        fill: #475059;
      }
      .project--l {
        opacity: 0.3;
      }
      .project--m {
        clip-path: url(#a);
      }
      .project--n {
        fill: #ffd45b;
      }</style>
<clipPath id="a">
<rect class="project--a" x="21.01" y="37.78" width="16.52" height="11.97"/>
</clipPath>
</defs>
<title>Przygotowanie projektu graficznego</title>
<polygon class="project--b" points="43.6 3.37 47.98 7.78 47.98 56.71 5.4 56.71 5.4 3.37"/>
<polygon class="project--c" points="40.2 0 5.4 0 5.4 3.4 43.6 3.4"/>
<polygon class="project--b" points="42.56 2.48 14.56 2.48 14.56 0.88 40.73 0.88"/>
<path class="project--d" d="M8.28,1.7a.67.67,0,0,1-.67.67A.66.66,0,0,1,7,1.7.65.65,0,0,1,7.61,1,.66.66,0,0,1,8.28,1.7Z"/>
<path class="project--e" d="M10.6,1.7a.66.66,0,1,1-1.32,0,.66.66,0,0,1,1.32,0Z"/>
<path class="project--f" d="M12.91,1.7a.67.67,0,1,1-1.33,0,.67.67,0,0,1,1.33,0Z"/>
<g class="project--g">
<path class="project--h" d="M9.05,53.91H44.1V7.18h0V6.73H8.6V53.91Zm0-46.73h5.39v5.39H9.05Zm17.07,0v5.39H20.73V7.18ZM32,30.1H26.57V24.7H32Zm-5.84,0H20.73V24.7h5.39Zm0,.44v5.4H20.73v-5.4Zm.45,0H32v5.4H26.57ZM32,24.25H26.57V18.86H32Zm-5.84,0H20.73V18.86h5.39Zm-5.84,0H14.89V18.86h5.39Zm0,.45v5.4H14.89V24.7Zm0,5.84v5.4H14.89v-5.4Zm0,5.85v5.39H14.89V36.39Zm.45,0h5.39v5.39H20.73Zm5.84,0H32v5.39H26.57Zm5.84,0h5.4v5.39h-5.4Zm0-.45v-5.4h5.4v5.4Zm0-5.84V24.7h5.4v5.4Zm0-5.85V18.86h5.4v5.39Zm0-5.84V13h5.4v5.39Zm-.45,0H26.57V13H32Zm-5.84,0H20.73V13h5.39Zm-5.84,0H14.89V13h5.39ZM14.89,42.23h5.39v5.39H14.89Zm5.84,0h5.39v5.39H20.73Zm5.84,0H32v5.39H26.57Zm5.84,0h5.4v5.39h-5.4Zm5.84,5.84h5.4v5.39h-5.4Zm0-.45V42.23h5.4v5.39Zm0-5.84V36.39h5.4v5.39Zm-.44-29.21h-5.4V7.18h5.4Zm-5.85,0H26.57V7.18H32Zm-11.68,0H14.89V7.18h5.39ZM9.05,13h5.39v5.39H9.05Zm0,5.84h5.39v5.39H9.05Zm0,5.84h5.39v5.4H9.05Zm0,5.84h5.39v5.4H9.05Zm0,5.85h5.39v5.39H9.05Zm0,5.84h5.39v5.39H9.05Zm0,11.23V48.07h5.39v5.39Zm5.84,0V48.07h5.39v5.39Zm5.84,0V48.07h5.39v5.39Zm5.84,0V48.07H32v5.39Zm5.84-5.39h5.4v5.39h-5.4ZM43.65,35.94h-5.4v-5.4h5.4Zm0-5.84h-5.4V24.7h5.4Zm0-5.85h-5.4V18.86h5.4Zm0-5.84h-5.4V13h5.4Zm0-5.84h-5.4V7.18h5.4Z"/>
</g>
<path class="project--i" d="M44.22,31.79H26V17.58H44.22ZM26.6,31.14h17V18.23h-17Z"/>
<rect class="project--b" x="25.16" y="16.83" width="2.24" height="2.24"/>
<path class="project--i" d="M27.72,19.39H24.84V16.51h2.88Zm-2.24-.65h1.59V17.15H25.48Z"/>
<rect class="project--b" x="25.16" y="30.35" width="2.24" height="2.24"/>
<path class="project--i" d="M27.72,32.91H24.84V30h2.88Zm-2.24-.65h1.59V30.67H25.48Z"/>
<rect class="project--b" x="42.78" y="16.83" width="2.24" height="2.24"/>
<path class="project--i" d="M45.34,19.39H42.46V16.51h2.88Zm-2.24-.65h1.6V17.15H43.1Z"/>
<rect class="project--b" x="42.78" y="30.35" width="2.24" height="2.24"/>
<path class="project--i" d="M45.34,32.91H42.46V30h2.88Zm-2.24-.65h1.6V30.67H43.1Z"/>
<path class="project--i" d="M35.23,21.1H31.64v2.22h.63V23a1.3,1.3,0,0,1,1.29-1.27h1v5.91H33.26v.71h3.65v-.71H35.63V21.73h1A1.29,1.29,0,0,1,37.9,23v.32h.63V21.1Z"/>
<polygon class="project--j" points="50.74 34.04 43.97 31.41 46.6 38.18 48.2 36.1 49.73 37.64 50.19 37.17 48.66 35.64"/>
<rect class="project--j" x="8.6" y="11.03" width="35.5" height="3.59"/>
<rect class="project--b" x="28.56" y="12" width="13.53" height="1.66"/>
<polygon class="project--k" points="47.98 7.78 40.2 7.78 40.2 0"/>
<g class="project--l">
<polygon class="project--h" points="47.98 15.56 47.98 7.78 40.2 7.78"/>
</g>
<rect class="project--a" x="21.01" y="37.78" width="16.52" height="11.97"/>
<g class="m">
<polygon class="project--i" points="33.19 44.39 31.57 46.34 27.47 41.59 20.36 50.32 38.07 50.32"/>
<polygon class="project--h" points="27.46 50.28 27.47 41.59 20.41 50.28"/>
<polygon class="project--h" points="33.18 48.3 33.19 44.39 31.57 46.34"/>
<path class="project--n" d="m34.09 41.07a2.28 2.28 0 1 1 -2.27 -2.27 2.28 2.28 0 0 1 2.27 2.27z"/>
</g>
<path class="project--i" d="M37.53,37.78v12H21v-12H37.53m.64-.64H20.37V50.4h17.8V37.14Z"/>
<rect class="project--d" y="27.81" width="17.64" height="11.94"/>
<polygon class="project--b" points="7.16 36.62 7.16 30.95 11.05 33.79"/>
</svg>
