<svg class="websites" xmlns="http://www.w3.org/2000/svg" viewBox="0 0 42.76 58.49">
  <defs>
    <style>
      .websites--a {
        fill: #1a2e2d;
      }

      .websites--b {
        fill: #e4e2e9;
      }

      .websites--c {
        fill: #fff;
      }

      .websites--d {
        fill: #453d36;
      }

      .websites--e {
        fill: #5f727f;
      }

      .websites--f {
        opacity: 0.1;
      }

      .websites--g {
        fill: #576773;
      }

      .websites--h {
        opacity: 0.8;
      }

      .websites--i {
        opacity: 0.4;
      }

      .websites--j {
        fill: #9dbf3b;
      }

      .websites--k {
        fill: #abb2b9;
      }

      .websites--l {
        fill: #e0e1e1;
      }

      .websites--m {
        fill: #f05e59;
      }

      .websites--n {
        fill: #fbbb29;
      }

      .websites--o {
        fill: #4bb649;
      }

      .websites--p {
        fill: #324a5e;
      }
    </style>
  </defs>
  <title>Strony internetowe</title>
  <g>
    <g>
      <path class="websites--a" d="M42.76,28.26a.93.93,0,0,1-.92.95H.94A.92.92,0,0,1,0,28.3V1A.94.94,0,0,1,.92,0H41.81a.93.93,0,0,1,.95.91Z"/>
      <path class="websites--b" d="M42.76,57.54a.94.94,0,0,1-.92,1H.94A.93.93,0,0,1,0,57.58V30.23a.93.93,0,0,1,.92-.95H41.81a.92.92,0,0,1,.95.91Z"/>
      <polygon class="websites--c" points="2.16 27.39 40.84 27.36 40.81 2.17 2.13 2.17 2.16 27.39"/>
      <path class="websites--d" d="M21.74,1.19a.36.36,0,1,1-.36-.36A.36.36,0,0,1,21.74,1.19Z"/>
      <rect class="websites--e" x="4.16" y="28.2" width="2.94" height="1.86"/>
      <rect class="websites--e" x="35.82" y="28.2" width="2.94" height="1.86"/>
    </g>
    <g class="websites--f">
      <rect class="websites--g" x="1.42" y="30.82" width="39.92" height="17.16" rx="1.7" ry="1.7"/>
    </g>
    <g class="websites--h">
      <path class="websites--c" d="M2.51,33.46H4.24a.15.15,0,0,0,.15-.15v-.87a.15.15,0,0,0-.15-.15H2.51a.15.15,0,0,0-.15.15v.87A.15.15,0,0,0,2.51,33.46Z"/>
      <path class="websites--c" d="M8,33.46H9.76a.15.15,0,0,0,.14-.15v-.87a.15.15,0,0,0-.14-.15H8a.15.15,0,0,0-.15.15v.87A.15.15,0,0,0,8,33.46Z"/>
      <path class="websites--c" d="M10.78,33.46h1.73a.15.15,0,0,0,.15-.15v-.87a.15.15,0,0,0-.15-.15H10.78a.15.15,0,0,0-.15.15v.87A.15.15,0,0,0,10.78,33.46Z"/>
      <path class="websites--c" d="M13.53,33.46h1.74a.15.15,0,0,0,.15-.15v-.87a.15.15,0,0,0-.15-.15H13.53a.15.15,0,0,0-.14.15v.87A.15.15,0,0,0,13.53,33.46Z"/>
      <path class="websites--c" d="M16.29,33.46H18a.15.15,0,0,0,.14-.15v-.87a.15.15,0,0,0-.14-.15H16.29a.15.15,0,0,0-.14.15v.87A.15.15,0,0,0,16.29,33.46Z"/>
      <path class="websites--c" d="M19.05,33.46h1.74a.15.15,0,0,0,.14-.15v-.87a.15.15,0,0,0-.14-.15H19.05a.15.15,0,0,0-.14.15v.87A.15.15,0,0,0,19.05,33.46Z"/>
      <path class="websites--c" d="M21.81,33.46h1.74a.15.15,0,0,0,.14-.15v-.87a.15.15,0,0,0-.14-.15H21.81a.15.15,0,0,0-.14.15v.87A.15.15,0,0,0,21.81,33.46Z"/>
      <path class="websites--c" d="M24.57,33.46h1.74a.15.15,0,0,0,.14-.15v-.87a.15.15,0,0,0-.14-.15H24.57a.15.15,0,0,0-.15.15v.87A.15.15,0,0,0,24.57,33.46Z"/>
      <path class="websites--c" d="M27.32,33.46h1.74a.15.15,0,0,0,.15-.15v-.87a.15.15,0,0,0-.15-.15H27.32a.15.15,0,0,0-.14.15v.87A.15.15,0,0,0,27.32,33.46Z"/>
      <path class="websites--c" d="M30.09,33.46h1.73a.15.15,0,0,0,.15-.15v-.87a.15.15,0,0,0-.15-.15H30.09a.15.15,0,0,0-.15.15v.87A.15.15,0,0,0,30.09,33.46Z"/>
      <path class="websites--c" d="M32.84,33.46h1.74a.15.15,0,0,0,.15-.15v-.87a.15.15,0,0,0-.15-.15H32.84a.15.15,0,0,0-.14.15v.87A.15.15,0,0,0,32.84,33.46Z"/>
      <path class="websites--c" d="M35.6,33.46h1.74a.15.15,0,0,0,.14-.15v-.87a.15.15,0,0,0-.14-.15H35.6a.15.15,0,0,0-.14.15v.87A.15.15,0,0,0,35.6,33.46Z"/>
      <path class="websites--c" d="M40.1,32.29H38.36a.15.15,0,0,0-.14.15v.87a.15.15,0,0,0,.14.15H40.1a.15.15,0,0,0,.14-.15v-.87A.15.15,0,0,0,40.1,32.29Z"/>
      <path class="websites--c" d="M2.5,36.1H4.2A.14.14,0,0,0,4.33,36v-1.6a.14.14,0,0,0-.13-.15H2.5a.15.15,0,0,0-.14.15V36A.15.15,0,0,0,2.5,36.1Z"/>
      <path class="websites--c" d="M5.16,36.1H6.85A.15.15,0,0,0,7,36v-1.6a.15.15,0,0,0-.14-.15H5.16a.15.15,0,0,0-.14.15V36A.15.15,0,0,0,5.16,36.1Z"/>
      <path class="websites--c" d="M7.81,36.1h1.7A.15.15,0,0,0,9.65,36v-1.6a.15.15,0,0,0-.14-.15H7.81a.14.14,0,0,0-.13.15V36A.14.14,0,0,0,7.81,36.1Z"/>
      <path class="websites--c" d="M12.17,34.2h-1.7a.15.15,0,0,0-.14.15V36a.15.15,0,0,0,.14.15h1.7a.15.15,0,0,0,.14-.15v-1.6A.15.15,0,0,0,12.17,34.2Z"/>
      <path class="websites--c" d="M14.83,34.2h-1.7a.15.15,0,0,0-.14.15V36a.15.15,0,0,0,.14.15h1.7A.14.14,0,0,0,15,36v-1.6A.14.14,0,0,0,14.83,34.2Z"/>
      <path class="websites--c" d="M15.79,36.1h1.69a.15.15,0,0,0,.14-.15v-1.6a.15.15,0,0,0-.14-.15H15.79a.15.15,0,0,0-.14.15V36A.15.15,0,0,0,15.79,36.1Z"/>
      <path class="websites--c" d="M20.14,34.2h-1.7a.14.14,0,0,0-.13.15V36a.14.14,0,0,0,.13.15h1.7a.15.15,0,0,0,.14-.15v-1.6A.15.15,0,0,0,20.14,34.2Z"/>
      <path class="websites--c" d="M22.8,34.2H21.1a.15.15,0,0,0-.14.15V36a.15.15,0,0,0,.14.15h1.7a.15.15,0,0,0,.14-.15v-1.6A.15.15,0,0,0,22.8,34.2Z"/>
      <path class="websites--c" d="M25.46,34.2h-1.7a.15.15,0,0,0-.14.15V36a.15.15,0,0,0,.14.15h1.7a.14.14,0,0,0,.13-.15v-1.6A.14.14,0,0,0,25.46,34.2Z"/>
      <path class="websites--c" d="M28.11,34.2H26.42a.15.15,0,0,0-.14.15V36a.15.15,0,0,0,.14.15h1.69a.15.15,0,0,0,.14-.15v-1.6A.15.15,0,0,0,28.11,34.2Z"/>
      <path class="websites--c" d="M30.77,34.2h-1.7a.14.14,0,0,0-.13.15V36a.14.14,0,0,0,.13.15h1.7a.15.15,0,0,0,.14-.15v-1.6A.15.15,0,0,0,30.77,34.2Z"/>
      <path class="websites--c" d="M36.09,34.2h-1.7a.15.15,0,0,0-.14.15V36a.15.15,0,0,0,.14.15h1.7a.14.14,0,0,0,.13-.15v-1.6A.14.14,0,0,0,36.09,34.2Z"/>
      <path class="websites--c" d="M40.05,34.2h-3a.15.15,0,0,0-.14.15V36a.15.15,0,0,0,.14.15h3a.15.15,0,0,0,.14-.15v-1.6A.15.15,0,0,0,40.05,34.2Z"/>
      <path class="websites--c" d="M33.43,34.2h-1.7a.15.15,0,0,0-.14.15V36a.15.15,0,0,0,.14.15h1.7a.15.15,0,0,0,.14-.15v-1.6A.15.15,0,0,0,33.43,34.2Z"/>
      <path class="websites--c" d="M8.3,38.59V37a.15.15,0,0,0-.14-.15H6.46a.14.14,0,0,0-.13.15v1.6a.14.14,0,0,0,.13.15h1.7A.15.15,0,0,0,8.3,38.59Z"/>
      <path class="websites--c" d="M2.5,38.74h3a.15.15,0,0,0,.14-.15V37a.15.15,0,0,0-.14-.15h-3a.15.15,0,0,0-.14.15v1.6A.15.15,0,0,0,2.5,38.74Z"/>
      <path class="websites--c" d="M11,38.59V37a.15.15,0,0,0-.14-.15H9.12A.14.14,0,0,0,9,37v1.6a.14.14,0,0,0,.13.15h1.7A.15.15,0,0,0,11,38.59Z"/>
      <path class="websites--c" d="M11.64,37v1.6a.15.15,0,0,0,.14.15h1.7a.15.15,0,0,0,.14-.15V37a.15.15,0,0,0-.14-.15h-1.7A.15.15,0,0,0,11.64,37Z"/>
      <path class="websites--c" d="M14.3,37v1.6a.15.15,0,0,0,.14.15h1.7a.14.14,0,0,0,.13-.15V37a.14.14,0,0,0-.13-.15h-1.7A.15.15,0,0,0,14.3,37Z"/>
      <path class="websites--c" d="M17,37v1.6a.14.14,0,0,0,.13.15h1.7a.15.15,0,0,0,.14-.15V37a.15.15,0,0,0-.14-.15h-1.7A.14.14,0,0,0,17,37Z"/>
      <path class="websites--c" d="M19.61,37v1.6a.15.15,0,0,0,.14.15h1.7a.15.15,0,0,0,.14-.15V37a.15.15,0,0,0-.14-.15h-1.7A.15.15,0,0,0,19.61,37Z"/>
      <path class="websites--c" d="M22.27,37v1.6a.15.15,0,0,0,.14.15h1.7a.15.15,0,0,0,.14-.15V37a.15.15,0,0,0-.14-.15h-1.7A.15.15,0,0,0,22.27,37Z"/>
      <path class="websites--c" d="M24.93,37v1.6a.15.15,0,0,0,.14.15h1.7a.14.14,0,0,0,.13-.15V37a.14.14,0,0,0-.13-.15h-1.7A.15.15,0,0,0,24.93,37Z"/>
      <path class="websites--c" d="M27.59,37v1.6a.14.14,0,0,0,.13.15h1.7a.15.15,0,0,0,.14-.15V37a.15.15,0,0,0-.14-.15h-1.7A.14.14,0,0,0,27.59,37Z"/>
      <path class="websites--c" d="M30.24,37v1.6a.15.15,0,0,0,.14.15h1.7a.15.15,0,0,0,.14-.15V37a.15.15,0,0,0-.14-.15h-1.7A.15.15,0,0,0,30.24,37Z"/>
      <path class="websites--c" d="M32.9,37v1.6a.15.15,0,0,0,.14.15h1.7a.15.15,0,0,0,.14-.15V37a.15.15,0,0,0-.14-.15H33A.15.15,0,0,0,32.9,37Z"/>
      <path class="websites--c" d="M37.53,38.59V37a.14.14,0,0,0-.13-.15H35.7a.15.15,0,0,0-.14.15v1.6a.15.15,0,0,0,.14.15h1.7A.14.14,0,0,0,37.53,38.59Z"/>
      <path class="websites--c" d="M7.1,41.37H8.8a.14.14,0,0,0,.14-.14v-1.6a.15.15,0,0,0-.14-.15H7.1a.15.15,0,0,0-.14.15v1.6A.14.14,0,0,0,7.1,41.37Z"/>
      <path class="websites--c" d="M2.5,41.37H6.2a.14.14,0,0,0,.14-.14v-1.6a.15.15,0,0,0-.14-.15H2.5a.15.15,0,0,0-.14.15v1.6A.14.14,0,0,0,2.5,41.37Z"/>
      <path class="websites--c" d="M9.76,41.37h1.7a.13.13,0,0,0,.13-.14v-1.6a.14.14,0,0,0-.13-.15H9.76a.15.15,0,0,0-.14.15v1.6A.14.14,0,0,0,9.76,41.37Z"/>
      <path class="websites--c" d="M14.25,41.23v-1.6a.14.14,0,0,0-.13-.15h-1.7a.15.15,0,0,0-.14.15v1.6a.14.14,0,0,0,.14.14h1.7A.13.13,0,0,0,14.25,41.23Z"/>
      <path class="websites--c" d="M16.91,41.23v-1.6a.15.15,0,0,0-.14-.15h-1.7a.14.14,0,0,0-.13.15v1.6a.13.13,0,0,0,.13.14h1.7A.14.14,0,0,0,16.91,41.23Z"/>
      <path class="websites--c" d="M19.57,41.23v-1.6a.15.15,0,0,0-.14-.15h-1.7a.15.15,0,0,0-.14.15v1.6a.14.14,0,0,0,.14.14h1.7A.14.14,0,0,0,19.57,41.23Z"/>
      <path class="websites--c" d="M22.22,41.23v-1.6a.14.14,0,0,0-.13-.15h-1.7a.15.15,0,0,0-.14.15v1.6a.14.14,0,0,0,.14.14h1.7A.13.13,0,0,0,22.22,41.23Z"/>
      <path class="websites--c" d="M24.88,41.23v-1.6a.15.15,0,0,0-.14-.15H23.05a.15.15,0,0,0-.14.15v1.6a.14.14,0,0,0,.14.14h1.69A.14.14,0,0,0,24.88,41.23Z"/>
      <path class="websites--c" d="M27.54,41.23v-1.6a.15.15,0,0,0-.14-.15H25.7a.14.14,0,0,0-.13.15v1.6a.13.13,0,0,0,.13.14h1.7A.14.14,0,0,0,27.54,41.23Z"/>
      <path class="websites--c" d="M30.2,41.23v-1.6a.15.15,0,0,0-.14-.15h-1.7a.15.15,0,0,0-.14.15v1.6a.14.14,0,0,0,.14.14h1.7A.14.14,0,0,0,30.2,41.23Z"/>
      <path class="websites--c" d="M32.85,41.23v-1.6a.14.14,0,0,0-.13-.15H31a.15.15,0,0,0-.14.15v1.6a.14.14,0,0,0,.14.14h1.7A.13.13,0,0,0,32.85,41.23Z"/>
      <path class="websites--c" d="M35.51,41.23v-1.6a.15.15,0,0,0-.14-.15H33.68a.15.15,0,0,0-.14.15v1.6a.14.14,0,0,0,.14.14h1.69A.14.14,0,0,0,35.51,41.23Z"/>
      <path class="websites--c" d="M40.05,36.84h-1.7a.14.14,0,0,0-.13.15v2a.45.45,0,0,1-.44.45H36.38a.14.14,0,0,0-.13.15v1.6a.13.13,0,0,0,.13.14h3.67a.14.14,0,0,0,.14-.14V37A.15.15,0,0,0,40.05,36.84Z"/>
      <path class="websites--c" d="M10.15,42.12H8.45a.14.14,0,0,0-.13.14v1.61a.13.13,0,0,0,.13.14h1.7a.14.14,0,0,0,.14-.14V42.26A.14.14,0,0,0,10.15,42.12Z"/>
      <path class="websites--c" d="M2.5,44H7.43a.14.14,0,0,0,.14-.14V42.26a.14.14,0,0,0-.14-.14H2.5a.14.14,0,0,0-.14.14v1.61A.14.14,0,0,0,2.5,44Z"/>
      <path class="websites--c" d="M11.11,44h1.7a.14.14,0,0,0,.14-.14V42.26a.14.14,0,0,0-.14-.14h-1.7a.14.14,0,0,0-.14.14v1.61A.14.14,0,0,0,11.11,44Z"/>
      <path class="websites--c" d="M13.77,44h1.7a.13.13,0,0,0,.13-.14V42.26a.14.14,0,0,0-.13-.14h-1.7a.14.14,0,0,0-.14.14v1.61A.14.14,0,0,0,13.77,44Z"/>
      <path class="websites--c" d="M16.43,44h1.69a.14.14,0,0,0,.14-.14V42.26a.14.14,0,0,0-.14-.14H16.43a.14.14,0,0,0-.14.14v1.61A.14.14,0,0,0,16.43,44Z"/>
      <path class="websites--c" d="M19.08,44h1.7a.14.14,0,0,0,.14-.14V42.26a.14.14,0,0,0-.14-.14h-1.7a.14.14,0,0,0-.13.14v1.61A.13.13,0,0,0,19.08,44Z"/>
      <path class="websites--c" d="M21.74,44h1.7a.14.14,0,0,0,.14-.14V42.26a.14.14,0,0,0-.14-.14h-1.7a.14.14,0,0,0-.14.14v1.61A.14.14,0,0,0,21.74,44Z"/>
      <path class="websites--c" d="M24.4,44h1.7a.13.13,0,0,0,.13-.14V42.26a.14.14,0,0,0-.13-.14H24.4a.14.14,0,0,0-.14.14v1.61A.14.14,0,0,0,24.4,44Z"/>
      <path class="websites--c" d="M27.05,44h1.7a.14.14,0,0,0,.14-.14V42.26a.14.14,0,0,0-.14-.14h-1.7a.14.14,0,0,0-.13.14v1.61A.13.13,0,0,0,27.05,44Z"/>
      <path class="websites--c" d="M29.71,44h1.7a.14.14,0,0,0,.14-.14V42.26a.14.14,0,0,0-.14-.14h-1.7a.14.14,0,0,0-.13.14v1.61A.13.13,0,0,0,29.71,44Z"/>
      <path class="websites--c" d="M32.37,44h1.7a.14.14,0,0,0,.14-.14V42.26a.15.15,0,0,0-.14-.14h-1.7a.14.14,0,0,0-.14.14v1.61A.14.14,0,0,0,32.37,44Z"/>
      <path class="websites--c" d="M40.05,42.12h-5a.14.14,0,0,0-.13.14v1.61a.13.13,0,0,0,.13.14h5a.14.14,0,0,0,.14-.14V42.26A.14.14,0,0,0,40.05,42.12Z"/>
      <path class="websites--c" d="M4.2,44.85H2.5a.14.14,0,0,0-.14.14V46.6a.14.14,0,0,0,.14.14H4.2a.13.13,0,0,0,.13-.14V45A.13.13,0,0,0,4.2,44.85Z"/>
      <path class="websites--c" d="M9.51,44.85H7.81a.13.13,0,0,0-.13.14V46.6a.13.13,0,0,0,.13.14h1.7a.14.14,0,0,0,.14-.14V45A.14.14,0,0,0,9.51,44.85Z"/>
      <path class="websites--c" d="M6.88,44.85H5.18a.13.13,0,0,0-.13.14V46.6a.13.13,0,0,0,.13.14h1.7A.14.14,0,0,0,7,46.6V45A.14.14,0,0,0,6.88,44.85Z"/>
      <path class="websites--c" d="M29.3,44.85H27.6a.14.14,0,0,0-.14.14V46.6a.14.14,0,0,0,.14.14h1.7a.13.13,0,0,0,.13-.14V45A.13.13,0,0,0,29.3,44.85Z"/>
      <path class="websites--c" d="M32,44.85h-1.7a.13.13,0,0,0-.13.14V46.6a.13.13,0,0,0,.13.14H32a.14.14,0,0,0,.14-.14V45A.14.14,0,0,0,32,44.85Z"/>
      <path class="websites--c" d="M26.64,44.85h-16a.14.14,0,0,0-.14.14V46.6a.14.14,0,0,0,.14.14h16a.14.14,0,0,0,.14-.14V45A.14.14,0,0,0,26.64,44.85Z"/>
      <path class="websites--c" d="M37.23,44.66H35.7a.11.11,0,0,0-.11.12v.57a.12.12,0,0,0,.11.13h1.53a.12.12,0,0,0,.12-.13v-.57A.12.12,0,0,0,37.23,44.66Z"/>
      <path class="websites--c" d="M35.7,45.91a.12.12,0,0,0-.11.12v.58a.11.11,0,0,0,.11.12h1.53a.12.12,0,0,0,.12-.12V46a.12.12,0,0,0-.12-.12Z"/>
      <path class="websites--c" d="M35,45.91H33.45a.13.13,0,0,0-.12.12v.58a.12.12,0,0,0,.12.12H35a.11.11,0,0,0,.11-.12V46A.12.12,0,0,0,35,45.91Z"/>
      <path class="websites--c" d="M39.52,45.91H38a.12.12,0,0,0-.12.12v.58a.12.12,0,0,0,.12.12h1.52a.12.12,0,0,0,.12-.12V46A.12.12,0,0,0,39.52,45.91Z"/>
    </g>
  </g>
  <g class="websites--i">
    <rect class="websites--g" x="14.09" y="48.76" width="14.23" height="8.65" rx="0.36" ry="0.36"/>
  </g>
  <polygon class="websites--j" points="37.27 19.55 29.17 16.53 32.23 24.64 33.8 22.04 35.99 24.23 36.89 23.33 34.69 21.14 37.27 19.55"/>
  <path class="websites--k" d="M9.83,14.15H9l-.91-2.71h.78l.54,1.64L10,11.44h.73l.54,1.64.53-1.64h.79l-.93,2.72h-.79l-.5-1.48Z"/>
  <path class="websites--k" d="M14.4,14.15h-.79l-.92-2.71h.78L14,13.08l.53-1.64h.73l.53,1.64.54-1.64h.78l-.92,2.72h-.79l-.5-1.48Z"/>
  <path class="websites--k" d="M19,14.15h-.79l-.93-2.71H18l.53,1.64.53-1.64h.74l.53,1.64.53-1.64h.79l-.92,2.72H20l-.5-1.48Z"/>
  <g>
    <g>
      <path class="websites--l" d="M39.64,4.13h-36V7.22h36Z"/>
      <path class="websites--c" d="M38.68,6.38H13.23V4.93l25.43,0Z"/>
    </g>
    <g>
      <path class="websites--m" d="M5.47,5.67a.61.61,0,1,1-.61-.6A.61.61,0,0,1,5.47,5.67Z"/>
      <path class="websites--n" d="M7.58,5.67a.6.6,0,1,1-.6-.6A.6.6,0,0,1,7.58,5.67Z"/>
      <path class="websites--o" d="M9.67,5.67a.6.6,0,1,1-.6-.6A.6.6,0,0,1,9.67,5.67Z"/>
    </g>
  </g>
  <path class="websites--p" d="M14.56,6.06h-.22l-.27-.77h.22l.15.47.15-.47h.22l.15.47.15-.47h.22l-.26.77h-.23l-.14-.43Z"/>
  <path class="websites--p" d="M15.86,6.06h-.22l-.26-.77h.22l.15.47.15-.47h.21l.15.47.15-.47h.23l-.27.77h-.22L16,5.63Z"/>
  <path class="websites--p" d="M17.16,6.06h-.22l-.27-.77h.22l.15.47.16-.47h.21l.15.47.15-.47h.22l-.26.77h-.23l-.14-.43Z"/>
</svg>
